<?xml version="1.0" standalone="no"?>
<!DOCTYPE svg PUBLIC "-//W3C//DTD SVG 20010904//EN"
 "http://www.w3.org/TR/2001/REC-SVG-20010904/DTD/svg10.dtd">
<svg version="1.0" xmlns="http://www.w3.org/2000/svg"
 width="512.000000pt" height="512.000000pt" viewBox="0 0 512.000000 512.000000"
 preserveAspectRatio="xMidYMid meet">
<metadata>
Created by potrace 1.16, written by Peter Selinger 2001-2019
</metadata>
<g transform="translate(0.000000,512.000000) scale(0.100000,-0.100000)"
fill="#000000" stroke="none">
<path d="M895 5106 c-68 -22 -147 -66 -215 -121 -104 -85 -471 -463 -528 -544
-57 -81 -104 -194 -128 -304 -20 -95 -20 -336 1 -464 66 -413 285 -923 600
-1403 437 -664 1004 -1234 1632 -1638 643 -414 1219 -632 1669 -632 230 0 380
46 535 163 84 63 523 517 569 588 55 85 81 174 81 275 1 97 -12 147 -59 239
-31 62 -80 115 -411 449 -458 461 -499 492 -681 503 -96 7 -172 -9 -262 -55
-63 -31 -103 -66 -301 -261 l-229 -226 -86 45 c-215 112 -485 316 -716 540
-299 291 -528 582 -649 824 l-44 89 212 211 c121 121 229 238 253 275 113 172
113 381 -1 554 -56 85 -740 770 -826 825 -89 59 -172 82 -285 81 -50 0 -109
-6 -131 -13z m234 -278 c70 -32 759 -723 796 -797 37 -74 33 -147 -13 -218
-17 -27 -133 -149 -257 -272 -132 -131 -235 -241 -247 -264 -35 -70 -23 -138
55 -295 133 -268 328 -529 622 -831 296 -305 589 -529 898 -690 120 -62 144
-71 191 -71 29 0 71 7 92 16 26 11 118 94 279 254 150 149 257 247 285 261 63
33 142 31 201 -4 24 -14 207 -189 406 -389 388 -389 402 -407 403 -503 0 -94
-29 -135 -262 -373 -299 -304 -310 -313 -438 -356 -136 -45 -276 -44 -514 5
-410 84 -1020 389 -1496 749 -653 494 -1223 1173 -1555 1855 -307 630 -378
1095 -208 1365 50 79 506 531 563 558 60 29 139 29 199 0z"/>
</g>
</svg>
