<?xml version="1.0" standalone="no"?>
<!DOCTYPE svg PUBLIC "-//W3C//DTD SVG 20010904//EN"
 "http://www.w3.org/TR/2001/REC-SVG-20010904/DTD/svg10.dtd">
<svg version="1.0" xmlns="http://www.w3.org/2000/svg"
 width="512.000000pt" height="512.000000pt" viewBox="0 0 512.000000 512.000000"
 preserveAspectRatio="xMidYMid meet">
<metadata>
Created by potrace 1.16, written by Peter Selinger 2001-2019
</metadata>
<g transform="translate(0.000000,512.000000) scale(0.100000,-0.100000)"
fill="#000000" stroke="none">
<path d="M2265 5104 c-467 -63 -890 -235 -1260 -513 -127 -96 -334 -297 -438
-426 -221 -274 -382 -593 -467 -929 -56 -221 -72 -341 -77 -586 -11 -457 69
-816 268 -1213 32 -66 59 -124 59 -130 0 -7 -79 -301 -177 -655 -97 -353 -173
-645 -170 -649 4 -3 303 71 665 165 363 95 666 172 674 172 8 0 66 -24 129
-54 374 -177 753 -256 1169 -243 215 7 339 24 540 73 193 48 332 99 525 194
264 130 484 287 685 489 206 206 346 404 475 666 128 260 203 509 239 793 21
161 21 478 1 642 -48 391 -188 764 -407 1092 -72 108 -199 267 -267 333 -28
27 -51 53 -51 58 0 25 -243 223 -405 329 -319 210 -678 342 -1068 393 -146 19
-500 19 -642 -1z m600 -430 c786 -106 1462 -666 1714 -1420 279 -835 9 -1749
-678 -2297 -298 -238 -658 -394 -1041 -453 -153 -23 -434 -23 -585 0 -274 43
-546 138 -768 270 -43 25 -87 46 -98 46 -14 0 -676 -168 -770 -196 -13 -3 5
73 83 353 54 197 101 372 104 388 5 25 -4 47 -47 115 -124 199 -221 439 -272
670 -166 748 115 1553 718 2058 453 380 1040 547 1640 466z"/>
<path d="M1615 3761 c-88 -23 -178 -113 -258 -261 -62 -114 -82 -197 -82 -340
1 -150 21 -232 95 -388 80 -168 161 -285 370 -532 317 -377 584 -579 964 -730
273 -109 392 -140 536 -140 161 0 265 32 407 126 129 86 176 156 207 306 18
89 21 171 6 199 -12 22 -106 72 -123 66 -7 -2 -75 27 -152 66 -245 122 -338
157 -383 143 -11 -4 -62 -59 -113 -124 -134 -167 -169 -202 -205 -202 -38 0
-236 92 -349 162 -112 70 -260 194 -341 284 -126 143 -254 332 -254 377 0 17
24 54 75 114 85 100 135 186 135 233 0 17 -13 62 -29 98 -16 37 -61 146 -101
242 -130 314 -121 304 -268 307 -59 1 -120 -2 -137 -6z"/>
</g>
</svg>
