<?xml version="1.0" standalone="no"?>
<!DOCTYPE svg PUBLIC "-//W3C//DTD SVG 20010904//EN"
 "http://www.w3.org/TR/2001/REC-SVG-20010904/DTD/svg10.dtd">
<svg version="1.0" xmlns="http://www.w3.org/2000/svg"
 width="512.000000pt" height="512.000000pt" viewBox="0 0 512.000000 512.000000"
 preserveAspectRatio="xMidYMid meet">
<metadata>
Created by potrace 1.16, written by Peter Selinger 2001-2019
</metadata>
<g transform="translate(0.000000,512.000000) scale(0.100000,-0.100000)"
fill="#000000" stroke="none">
<path d="M275 5102 c-125 -43 -231 -157 -265 -285 -17 -62 -8 -446 15 -637 65
-550 206 -1035 444 -1525 239 -493 518 -883 910 -1276 393 -392 783 -671 1276
-910 490 -238 975 -379 1525 -444 191 -23 575 -32 637 -15 96 25 187 93 242
179 61 94 61 93 61 692 0 483 -2 551 -17 595 -32 95 -87 166 -168 219 -80 51
-133 64 -289 71 -274 10 -498 46 -746 117 -169 48 -275 55 -369 24 -69 -23
-66 -21 -419 -289 l-299 -226 -124 72 c-554 321 -906 673 -1225 1225 l-72 124
226 300 c125 165 237 314 250 331 34 46 62 148 62 226 0 48 -11 107 -41 211
-75 266 -103 441 -119 734 -9 177 -18 223 -55 295 -24 47 -102 127 -151 156
-91 53 -96 54 -689 53 -492 0 -555 -2 -600 -17z"/>
</g>
</svg>
