<?xml version="1.0" standalone="no"?>
<!DOCTYPE svg PUBLIC "-//W3C//DTD SVG 20010904//EN"
 "http://www.w3.org/TR/2001/REC-SVG-20010904/DTD/svg10.dtd">
<svg version="1.0" xmlns="http://www.w3.org/2000/svg"
 width="512.000000pt" height="512.000000pt" viewBox="0 0 512.000000 512.000000"
 preserveAspectRatio="xMidYMid meet">
<metadata>
Created by potrace 1.16, written by Peter Selinger 2001-2019
</metadata>
<g transform="translate(0.000000,512.000000) scale(0.100000,-0.100000)"
fill="#000000" stroke="none">
<path d="M2431 5098 c-47 -18 -97 -62 -399 -359 l-346 -338 -380 -3 -381 -3
-55 -26 c-80 -37 -125 -81 -162 -157 l-33 -67 -3 -370 -3 -370 -169 -170
c-123 -124 -175 -184 -192 -220 -23 -50 -23 -54 -26 -529 -3 -521 -4 -514 53
-536 30 -11 82 5 95 30 6 12 10 196 10 474 0 250 4 457 8 460 5 3 366 -350
803 -785 437 -434 790 -792 784 -795 -5 -2 -365 -200 -800 -439 l-790 -434 -5
638 c-4 508 -8 641 -18 654 -38 45 -127 22 -137 -36 -3 -17 -5 -358 -3 -757
l3 -725 23 -46 c34 -68 83 -121 143 -154 l54 -30 1456 -3 1456 -2 18 20 c24
27 24 83 1 109 -19 20 -26 21 -1446 23 l-1426 3 -42 27 c-43 29 -80 85 -65 98
23 20 2040 1121 2069 1129 21 6 47 6 69 0 30 -8 2045 -1109 2068 -1129 15 -13
-22 -69 -65 -98 l-42 -27 -447 -3 c-432 -3 -448 -4 -465 -23 -23 -26 -23 -82
1 -109 18 -20 27 -20 474 -20 268 0 471 4 491 10 57 16 126 65 164 117 71 97
67 18 64 1503 l-3 1335 -23 50 c-17 36 -69 96 -192 220 l-170 171 0 87 c0 91
-14 139 -45 151 -30 11 -62 6 -89 -15 l-26 -20 0 -412 0 -412 -682 -682 -683
-682 -115 65 c-131 73 -171 86 -255 86 -73 -1 -127 -20 -260 -95 l-100 -56
-683 682 -682 682 2 665 3 665 23 37 c13 20 40 47 60 60 l37 23 1605 0 1605 0
37 -23 c69 -43 83 -79 86 -230 4 -128 5 -133 29 -152 50 -39 114 -16 129 45 3
14 5 81 2 149 -4 114 -6 128 -36 189 -37 75 -83 119 -162 156 l-55 26 -381 3
-380 3 -346 338 c-312 306 -351 341 -402 360 -75 28 -181 28 -255 -1z m211
-161 c20 -12 154 -138 297 -279 l260 -258 -639 0 -638 0 265 263 c145 144 279
270 296 279 46 25 114 23 159 -5z m2036 -3255 l-3 -1221 -790 434 c-434 239
-794 437 -800 439 -5 3 348 361 785 795 437 435 798 787 802 783 5 -5 7 -558
6 -1230z"/>
<path d="M2425 3806 c-296 -59 -528 -279 -601 -571 -24 -99 -22 -266 5 -369
81 -305 346 -534 651 -562 92 -9 118 -1 136 41 28 68 -11 109 -111 118 -86 7
-198 49 -278 104 -249 169 -330 490 -194 763 47 95 170 216 267 264 143 69
294 82 440 37 181 -56 346 -221 396 -395 34 -122 -1 -341 -68 -413 -31 -35
-104 -66 -134 -59 -13 4 -31 18 -41 32 -15 24 -16 59 -14 343 2 228 -1 324 -9
343 -13 27 -48 48 -81 48 -30 0 -69 -44 -69 -78 l0 -29 -49 24 c-118 59 -266
34 -369 -61 -91 -85 -131 -183 -132 -321 0 -129 38 -232 118 -318 100 -107
243 -137 367 -79 33 16 66 36 74 45 12 15 15 14 35 -15 65 -96 197 -122 322
-62 134 64 226 254 227 469 1 115 -14 178 -68 290 -75 156 -182 262 -340 340
-49 25 -117 52 -150 60 -86 22 -245 27 -330 11z m201 -521 c103 -79 118 -294
28 -413 -127 -166 -339 -22 -322 217 13 180 175 287 294 196z"/>
</g>
</svg>
