<?xml version="1.0" standalone="no"?>
<!DOCTYPE svg PUBLIC "-//W3C//DTD SVG 20010904//EN"
 "http://www.w3.org/TR/2001/REC-SVG-20010904/DTD/svg10.dtd">
<svg version="1.0" xmlns="http://www.w3.org/2000/svg"
 width="512.000000pt" height="512.000000pt" viewBox="0 0 512.000000 512.000000"
 preserveAspectRatio="xMidYMid meet">
<metadata>
Created by potrace 1.16, written by Peter Selinger 2001-2019
</metadata>
<g transform="translate(0.000000,512.000000) scale(0.100000,-0.100000)"
fill="#000000" stroke="none">
<path d="M2277 5100 c-136 -25 -288 -75 -414 -137 -154 -76 -191 -125 -142
-187 32 -41 71 -35 191 29 123 65 276 116 412 140 129 22 343 21 473 0 514
-88 927 -453 1091 -966 178 -555 47 -1168 -389 -1821 -165 -247 -379 -507
-604 -733 -131 -131 -321 -305 -334 -305 -29 0 -392 353 -558 543 -515 590
-796 1152 -843 1688 -36 411 104 851 364 1147 47 53 56 69 56 102 0 45 -35 80
-79 80 -35 0 -137 -106 -219 -230 -347 -519 -380 -1199 -89 -1852 l26 -58
-227 0 c-217 0 -229 -1 -278 -24 -58 -27 -117 -91 -138 -150 -17 -45 -266
-2010 -266 -2093 0 -104 59 -201 152 -247 l52 -26 2046 0 2046 0 52 26 c97 48
152 141 152 253 -1 31 -40 371 -89 755 l-88 699 -28 25 c-32 27 -74 25 -107
-5 -24 -21 -23 -57 6 -288 14 -104 23 -191 22 -192 -2 -2 -349 -2 -773 -1
l-771 3 130 140 c282 304 512 609 676 900 l43 77 243 -4 c323 -4 313 2 344
-233 22 -166 32 -185 98 -185 46 0 74 29 74 78 0 69 -30 276 -47 321 -22 60
-78 119 -138 147 -48 23 -60 24 -272 24 -123 0 -223 3 -223 7 0 3 22 60 49
127 226 557 221 1112 -14 1591 -206 420 -574 712 -1035 822 -91 22 -134 26
-315 29 -177 3 -227 0 -318 -16z m-1277 -2924 l0 -215 26 -20 c30 -23 71 -27
95 -8 35 27 39 54 39 257 l0 201 67 -3 67 -3 48 -85 c27 -47 74 -124 104 -173
l56 -87 -8 -419 c-7 -396 -6 -420 12 -449 35 -61 44 -62 446 -62 l365 0 54
-47 c178 -156 194 -157 340 -33 l93 80 873 0 c480 0 873 -1 873 -2 0 -2 9 -73
20 -158 11 -85 20 -156 20 -157 0 -2 -133 -3 -295 -3 -327 0 -338 -2 -375 -63
-19 -30 -20 -52 -20 -304 l0 -273 -170 0 -170 0 0 273 c0 252 -1 274 -20 304
-39 64 -26 63 -590 63 l-511 0 -24 -25 c-33 -32 -33 -78 0 -110 l24 -25 481 0
480 0 0 -240 0 -240 -1423 2 c-1350 3 -1424 4 -1450 21 -15 10 -35 34 -44 53
-16 32 -16 44 1 182 9 81 20 164 23 185 l6 37 819 0 819 0 24 25 c33 32 33 78
0 110 l-24 25 -811 0 -811 0 6 33 c6 37 35 267 35 279 0 4 106 8 236 8 351 0
337 -13 342 332 l4 237 -26 26 c-33 33 -79 33 -111 0 -25 -24 -25 -25 -25
-230 l0 -205 -200 0 -201 0 6 33 c3 17 32 250 65 516 33 266 64 491 69 500 28
52 74 68 194 70 l77 1 0 -214z m877 -618 c32 -36 105 -116 162 -177 l103 -111
-246 0 -246 0 0 168 c0 93 3 216 6 274 l7 105 77 -96 c43 -53 104 -126 137
-163z m2736 -960 c19 -106 39 -320 33 -350 -8 -44 -43 -77 -93 -89 -21 -5
-140 -9 -265 -9 l-228 0 0 240 0 240 274 0 274 0 5 -32z"/>
<path d="M2415 4649 c-160 -19 -340 -83 -483 -171 -116 -72 -282 -235 -358
-353 -385 -595 -174 -1382 456 -1700 578 -291 1290 -58 1581 518 188 372 169
805 -53 1165 -72 118 -252 298 -369 370 -233 143 -505 203 -774 171z m350
-173 c189 -41 352 -126 492 -260 272 -258 381 -630 290 -987 -117 -452 -524
-769 -987 -769 -612 0 -1093 551 -1009 1156 54 393 346 729 726 839 48 14 117
30 153 35 85 12 247 5 335 -14z"/>
</g>
</svg>
